<mxfile host="app.diagrams.net" modified="2024-06-24T19:43:25.652Z" agent="Mozilla/5.0 (Windows NT 10.0; Win64; x64) AppleWebKit/537.36 (KHTML, like Gecko) Chrome/126.0.0.0 Safari/537.36" etag="LWubjlccT3ac8mDdaU9H" version="24.5.5" type="device">
  <diagram name="Page-1" id="XLbjpfaqYLDro0OIsdjI">
    <mxGraphModel dx="1912" dy="1029" grid="1" gridSize="10" guides="1" tooltips="1" connect="1" arrows="1" fold="1" page="1" pageScale="1" pageWidth="850" pageHeight="1100" math="0" shadow="0">
      <root>
        <mxCell id="0" />
        <mxCell id="1" parent="0" />
        <mxCell id="bhjNAZ4mAyjK180DVf1M-5" style="edgeStyle=orthogonalEdgeStyle;rounded=0;orthogonalLoop=1;jettySize=auto;html=1;strokeWidth=4;fontSize=32;" edge="1" parent="1" source="bhjNAZ4mAyjK180DVf1M-2" target="bhjNAZ4mAyjK180DVf1M-4">
          <mxGeometry relative="1" as="geometry" />
        </mxCell>
        <mxCell id="bhjNAZ4mAyjK180DVf1M-2" value="&lt;div style=&quot;font-size: 32px;&quot;&gt;Nodul care preia, filtrează și trimite informații de la&amp;nbsp;&lt;span style=&quot;font-size: 32px;&quot;&gt;senzorul&lt;/span&gt;&lt;/div&gt;&lt;div style=&quot;font-size: 32px;&quot;&gt;&lt;span style=&quot;font-size: 32px;&quot;&gt;de viteză&lt;/span&gt;&lt;/div&gt;" style="ellipse;whiteSpace=wrap;html=1;strokeWidth=6;fillColor=#dae8fc;strokeColor=#6c8ebf;gradientColor=#7ea6e0;fontSize=32;" vertex="1" parent="1">
          <mxGeometry x="370" y="680" width="360" height="220" as="geometry" />
        </mxCell>
        <mxCell id="bhjNAZ4mAyjK180DVf1M-13" style="edgeStyle=orthogonalEdgeStyle;rounded=0;orthogonalLoop=1;jettySize=auto;html=1;entryX=0;entryY=0.5;entryDx=0;entryDy=0;strokeWidth=4;fontSize=32;" edge="1" parent="1" source="bhjNAZ4mAyjK180DVf1M-3" target="bhjNAZ4mAyjK180DVf1M-8">
          <mxGeometry relative="1" as="geometry" />
        </mxCell>
        <mxCell id="bhjNAZ4mAyjK180DVf1M-3" value="&lt;span style=&quot;font-size: 32px;&quot;&gt;Nodul cu elementul de decizie&lt;/span&gt;" style="ellipse;whiteSpace=wrap;html=1;strokeWidth=6;fillColor=#dae8fc;strokeColor=#6c8ebf;gradientColor=#7ea6e0;fontSize=32;" vertex="1" parent="1">
          <mxGeometry x="1120" y="680" width="360" height="220" as="geometry" />
        </mxCell>
        <mxCell id="bhjNAZ4mAyjK180DVf1M-6" style="edgeStyle=orthogonalEdgeStyle;rounded=0;orthogonalLoop=1;jettySize=auto;html=1;strokeWidth=4;fontSize=32;" edge="1" parent="1" target="bhjNAZ4mAyjK180DVf1M-3">
          <mxGeometry relative="1" as="geometry">
            <mxPoint x="1030" y="790" as="sourcePoint" />
          </mxGeometry>
        </mxCell>
        <mxCell id="bhjNAZ4mAyjK180DVf1M-4" value="&lt;font style=&quot;font-size: 32px;&quot;&gt;Topic:/viteză&lt;/font&gt;&lt;div style=&quot;font-size: 32px;&quot;&gt;&lt;span style=&quot;font-size: 32px;&quot;&gt;Tipul mesajului: std_msgs/double&lt;/span&gt;&lt;/div&gt;" style="rounded=1;whiteSpace=wrap;html=1;fillColor=#d5e8d4;gradientColor=#97d077;strokeColor=#82b366;strokeWidth=6;fontSize=32;" vertex="1" parent="1">
          <mxGeometry x="780" y="710" width="300" height="160" as="geometry" />
        </mxCell>
        <mxCell id="bhjNAZ4mAyjK180DVf1M-7" value="&lt;span style=&quot;font-size: 32px;&quot;&gt;Nodul ce transmite la elementul de execuție&lt;/span&gt;" style="ellipse;whiteSpace=wrap;html=1;strokeWidth=6;fillColor=#dae8fc;strokeColor=#6c8ebf;gradientColor=#7ea6e0;fontSize=32;" vertex="1" parent="1">
          <mxGeometry x="1890" y="680" width="360" height="220" as="geometry" />
        </mxCell>
        <mxCell id="bhjNAZ4mAyjK180DVf1M-14" style="edgeStyle=orthogonalEdgeStyle;rounded=0;orthogonalLoop=1;jettySize=auto;html=1;strokeWidth=4;fontSize=32;" edge="1" parent="1" source="bhjNAZ4mAyjK180DVf1M-8" target="bhjNAZ4mAyjK180DVf1M-7">
          <mxGeometry relative="1" as="geometry" />
        </mxCell>
        <mxCell id="bhjNAZ4mAyjK180DVf1M-8" value="&lt;font style=&quot;font-size: 32px;&quot;&gt;Topic:/cmd_motor&lt;/font&gt;&lt;div style=&quot;font-size: 32px;&quot;&gt;&lt;span style=&quot;font-size: 32px;&quot;&gt;Tipul mesajului: std_msgs/float&lt;/span&gt;&lt;/div&gt;" style="rounded=1;whiteSpace=wrap;html=1;fillColor=#d5e8d4;gradientColor=#97d077;strokeColor=#82b366;strokeWidth=6;fontSize=32;" vertex="1" parent="1">
          <mxGeometry x="1540" y="710" width="300" height="160" as="geometry" />
        </mxCell>
        <mxCell id="bhjNAZ4mAyjK180DVf1M-15" style="edgeStyle=orthogonalEdgeStyle;rounded=0;orthogonalLoop=1;jettySize=auto;html=1;strokeWidth=4;fontSize=32;" edge="1" parent="1" source="bhjNAZ4mAyjK180DVf1M-11" target="bhjNAZ4mAyjK180DVf1M-12">
          <mxGeometry relative="1" as="geometry" />
        </mxCell>
        <mxCell id="bhjNAZ4mAyjK180DVf1M-11" value="&lt;span style=&quot;font-size: 32px;&quot;&gt;Nodul care preia, filtrează și trimite&amp;nbsp;&lt;/span&gt;&lt;div style=&quot;font-size: 32px;&quot;&gt;&lt;span style=&quot;font-size: 32px;&quot;&gt;semnalul de intrare&lt;/span&gt;&lt;/div&gt;" style="ellipse;whiteSpace=wrap;html=1;strokeWidth=6;fillColor=#dae8fc;strokeColor=#6c8ebf;gradientColor=#7ea6e0;fontSize=32;" vertex="1" parent="1">
          <mxGeometry x="370" y="420" width="360" height="220" as="geometry" />
        </mxCell>
        <mxCell id="bhjNAZ4mAyjK180DVf1M-16" style="edgeStyle=orthogonalEdgeStyle;rounded=0;orthogonalLoop=1;jettySize=auto;html=1;entryX=0.5;entryY=0;entryDx=0;entryDy=0;strokeWidth=4;fontSize=32;" edge="1" parent="1" target="bhjNAZ4mAyjK180DVf1M-3">
          <mxGeometry relative="1" as="geometry">
            <mxPoint x="1030" y="530.0666666666666" as="sourcePoint" />
          </mxGeometry>
        </mxCell>
        <mxCell id="bhjNAZ4mAyjK180DVf1M-12" value="&lt;font style=&quot;font-size: 32px;&quot;&gt;Topic:/intrare&lt;/font&gt;&lt;div style=&quot;font-size: 32px;&quot;&gt;&lt;span style=&quot;font-size: 32px;&quot;&gt;Tipul mesajului: std_msgs/int&lt;/span&gt;&lt;/div&gt;" style="rounded=1;whiteSpace=wrap;html=1;fillColor=#d5e8d4;gradientColor=#97d077;strokeColor=#82b366;strokeWidth=6;fontSize=32;" vertex="1" parent="1">
          <mxGeometry x="780" y="450" width="300" height="160" as="geometry" />
        </mxCell>
      </root>
    </mxGraphModel>
  </diagram>
</mxfile>
